<svg width="88" height="32" fill="none" xmlns="http://www.w3.org/2000/svg" id="svg-399289057_1038"><rect x=".5" y="7.5" width="17" height="17" rx="8.5" stroke="#0B0F13"></rect><circle cx="9" cy="16" r="6" fill="#0B0F13"></circle><path d="M27.48 24V10h1.94l7.22 11.4V10h1.7v14h-1.96l-7.2-11.36V24h-1.7Zm18.208.16c-2.98 0-5.12-2.18-5.12-5.2 0-3.04 2.14-5.2 5.12-5.2 3 0 5.14 2.16 5.14 5.2 0 3.02-2.14 5.2-5.14 5.2Zm0-1.44c2.08 0 3.5-1.56 3.5-3.76 0-2.2-1.42-3.76-3.5-3.76-2.06 0-3.48 1.56-3.48 3.76 0 2.2 1.42 3.76 3.48 3.76ZM53.87 10.7h1.6v3.22h3.1v1.42h-3.1v5.46c0 1.12.64 1.78 1.62 1.78h1.48V24h-1.54c-1.92 0-3.16-1.2-3.16-3.16v-5.5h-2.1v-1.42h2.1V10.7Zm13.566 10.06h1.62c-.34 2.06-2.12 3.4-4.62 3.4-2.98 0-4.98-2.38-4.98-5.26 0-2.96 1.84-5.14 4.8-5.14 2.94 0 4.7 2.04 4.7 4.72 0 .22-.02.56-.04.7h-7.88c.12 2.08 1.5 3.56 3.4 3.56 1.64 0 2.68-.72 3-1.98Zm-3.18-5.64c-1.7 0-2.84 1-3.14 2.78h6.2c-.12-1.7-1.26-2.78-3.06-2.78ZM80.849 24l-1.44-3.78h-6.24L71.71 24h-1.78l5.58-14h1.54l5.58 14h-1.78Zm-7.1-5.3h5.06l-2.52-6.6-2.54 6.6ZM84.22 24V10h1.7v14h-1.7Z" fill="#0B0F13"></path></svg>
